<svg width="163" height="150" viewBox="0 0 163 150" fill="none" xmlns="http://www.w3.org/2000/svg">
<g filter="url(#filter0_d_2_69)">
<path d="M124.102 51.9466C124.112 52.6549 124.065 53.3628 123.962 54.0632C122.857 61.6396 116.685 65.3146 109.906 66.4088C98.8767 68.1827 87.7992 71.5095 78.9167 78.8262C66.8141 88.7734 63.8032 93.4763 60.6259 96.9136C60.2448 97.328 59.8584 97.7204 59.4612 98.1017C57.9147 99.4492 56.0263 100.313 54.0186 100.593C52.0109 100.872 49.9675 100.554 48.1293 99.677C46.2911 98.8 44.7347 97.4003 43.6434 95.6428C42.5522 93.8852 41.9716 91.8431 41.9701 89.7571C41.9701 89.6576 41.9701 89.5637 41.9701 89.4697C42.1204 78.6217 51.2229 67.2267 49.8757 45.7738C48.5179 24.1552 41.7393 18.43 41.9647 10.9364C41.9647 8.0359 43.0838 5.25418 45.0756 3.2032C47.0675 1.15223 49.7691 0 52.5861 0C55.403 0 58.1046 1.15223 60.0965 3.2032C62.0884 5.25418 63.2074 8.0359 63.2074 10.9364C63.2094 11.5869 63.1537 12.2361 63.0411 12.8761C63.0411 12.8761 60.583 51.7145 63.2074 57.1634C63.2074 57.1634 64.3989 68.89 76.2332 68.8072C85.3572 68.8072 89.6508 60.562 93.2306 53.1237C95.9141 47.5975 99.0109 41.7618 104.421 39.1257C106.521 38.1017 108.839 37.6411 111.159 37.7868C113.478 37.9325 115.724 38.6798 117.688 39.9591C119.652 41.2385 121.27 43.0083 122.391 45.1042C123.512 47.2 124.101 49.5538 124.102 51.9466Z" fill="url(#paint0_linear_2_69)"/>
</g>
<g filter="url(#filter1_d_2_69)">
<path d="M8.37634 135.919H17.9378V140.578H4V126.548H8.37634V135.919Z" fill="#F1CE8C"/>
<path d="M34.1411 140.578V126.548H38.5175V140.578H34.1411Z" fill="#F1CE8C"/>
<path d="M73.4534 138.041L71.2869 142C70.253 141.364 69.2848 140.614 68.3982 139.763C66.7015 140.345 64.922 140.605 63.1408 140.532C60.1173 140.532 57.881 139.935 56.4319 138.741C54.9827 137.546 54.2606 135.717 54.2654 133.251C54.2587 132.463 54.3935 131.68 54.6626 130.945C54.9006 130.277 55.2671 129.67 55.7386 129.162C56.2192 128.672 56.7553 128.249 57.3346 127.901C57.9192 127.539 58.5455 127.26 59.1978 127.07C59.842 126.877 60.4985 126.733 61.1621 126.64C61.7944 126.554 62.4312 126.511 63.0686 126.509C63.6319 126.509 64.188 126.509 64.7296 126.578C65.3171 126.631 65.9008 126.723 66.4772 126.855C67.0653 126.988 67.6425 127.17 68.2032 127.401C68.7543 127.626 69.278 127.92 69.7631 128.277C70.2522 128.63 70.6902 129.058 71.063 129.546C71.4316 130.077 71.7102 130.673 71.8863 131.306C72.1037 132.029 72.2109 132.785 72.204 133.544C72.2201 134.597 72.0359 135.643 71.6624 136.619C72.2164 137.151 72.816 137.627 73.4534 138.041ZM63.2203 136.957C64.3043 137.037 65.3859 136.769 66.3256 136.188C66.697 135.88 66.9891 135.476 67.1747 135.015C67.3603 134.554 67.4334 134.05 67.3872 133.551C67.3962 133.051 67.2999 132.554 67.1055 132.098C66.9384 131.714 66.6915 131.375 66.3833 131.107C66.0815 130.856 65.7454 130.657 65.3868 130.515C65.0273 130.369 64.6546 130.263 64.2746 130.199C63.9129 130.15 63.5488 130.124 63.1841 130.123C62.7273 130.122 62.2719 130.176 61.8265 130.284C61.3799 130.396 60.9481 130.566 60.541 130.791C60.1203 131.028 59.7701 131.384 59.53 131.822C59.2644 132.306 59.1318 132.86 59.1472 133.421C59.1212 134.112 59.2735 134.798 59.5878 135.404C59.901 135.942 60.3736 136.353 60.931 136.573C61.6643 136.854 62.4412 136.984 63.2203 136.957Z" fill="#F1CE8C"/>
<path d="M97.245 140.578C95.5868 140.617 93.9316 140.41 92.3271 139.963C91.759 139.824 91.2239 139.562 90.7554 139.193C90.2869 138.824 89.8951 138.356 89.6045 137.818C89.2131 136.926 88.9688 135.969 88.8823 134.989C88.735 133.297 88.6723 131.599 88.6946 129.9V126.548H93.3164V132.821C93.3115 133.178 93.3308 133.535 93.3742 133.89C93.4203 134.247 93.5177 134.594 93.6631 134.92C93.8053 135.282 94.0284 135.601 94.313 135.85C94.6586 136.137 95.0536 136.348 95.4757 136.473C96.0534 136.647 96.6519 136.73 97.2522 136.719C97.8478 136.73 98.4416 136.647 99.0143 136.473C99.4258 136.353 99.8094 136.144 100.141 135.858C100.41 135.605 100.62 135.289 100.755 134.935C100.887 134.606 100.977 134.26 101.022 133.905C101.059 133.545 101.076 133.183 101.073 132.821V126.548H105.694V129.9C105.723 131.598 105.666 133.297 105.521 134.989C105.438 135.97 105.193 136.927 104.799 137.818C104.532 138.357 104.148 138.821 103.68 139.171C103.151 139.56 102.562 139.847 101.939 140.017C101.23 140.225 100.505 140.369 99.7726 140.447C98.933 140.541 98.0892 140.585 97.245 140.578Z" fill="#F1CE8C"/>
<path d="M121.908 140.578V126.548H126.285V140.578H121.908Z" fill="#F1CE8C"/>
<path d="M151.56 140.577H142.489V126.586H151.509C152.267 126.579 153.025 126.627 153.777 126.732C154.469 126.84 155.146 127.042 155.792 127.331C156.425 127.605 157 128.013 157.481 128.531C157.978 129.117 158.352 129.809 158.579 130.56C158.877 131.535 159.019 132.557 158.998 133.582C159.006 134.528 158.852 135.469 158.543 136.357C158.289 137.109 157.885 137.793 157.359 138.363C156.855 138.891 156.271 139.325 155.633 139.647C154.998 139.975 154.325 140.213 153.632 140.354C152.95 140.499 152.256 140.574 151.56 140.577ZM151.264 136.734C151.875 136.754 152.481 136.608 153.026 136.311C153.48 136.056 153.853 135.663 154.094 135.181C154.329 134.685 154.446 134.136 154.434 133.582C154.47 132.737 154.198 131.911 153.676 131.275C153.352 130.961 152.97 130.721 152.555 130.572C152.14 130.422 151.7 130.366 151.264 130.406H146.866V136.741L151.264 136.734Z" fill="#F1CE8C"/>
</g>
<defs>
<filter id="filter0_d_2_69" x="37.9592" y="0" width="90.1438" height="108.691" filterUnits="userSpaceOnUse" color-interpolation-filters="sRGB">
<feFlood flood-opacity="0" result="BackgroundImageFix"/>
<feColorMatrix in="SourceAlpha" type="matrix" values="0 0 0 0 0 0 0 0 0 0 0 0 0 0 0 0 0 0 127 0" result="hardAlpha"/>
<feOffset dy="4"/>
<feGaussianBlur stdDeviation="2"/>
<feComposite in2="hardAlpha" operator="out"/>
<feColorMatrix type="matrix" values="0 0 0 0 0 0 0 0 0 0 0 0 0 0 0 0 0 0 0.25 0"/>
<feBlend mode="normal" in2="BackgroundImageFix" result="effect1_dropShadow_2_69"/>
<feBlend mode="normal" in="SourceGraphic" in2="effect1_dropShadow_2_69" result="shape"/>
</filter>
<filter id="filter1_d_2_69" x="0" y="126.509" width="163" height="23.4907" filterUnits="userSpaceOnUse" color-interpolation-filters="sRGB">
<feFlood flood-opacity="0" result="BackgroundImageFix"/>
<feColorMatrix in="SourceAlpha" type="matrix" values="0 0 0 0 0 0 0 0 0 0 0 0 0 0 0 0 0 0 127 0" result="hardAlpha"/>
<feOffset dy="4"/>
<feGaussianBlur stdDeviation="2"/>
<feComposite in2="hardAlpha" operator="out"/>
<feColorMatrix type="matrix" values="0 0 0 0 0 0 0 0 0 0 0 0 0 0 0 0 0 0 0.25 0"/>
<feBlend mode="normal" in2="BackgroundImageFix" result="effect1_dropShadow_2_69"/>
<feBlend mode="normal" in="SourceGraphic" in2="effect1_dropShadow_2_69" result="shape"/>
</filter>
<linearGradient id="paint0_linear_2_69" x1="32.127" y1="-8.22304" x2="137.061" y2="144.641" gradientUnits="userSpaceOnUse">
<stop offset="0.01" stop-color="#FBC926"/>
<stop offset="0.25" stop-color="#FFFBCC"/>
<stop offset="0.3" stop-color="#F8F0BB"/>
<stop offset="0.41" stop-color="#E7D28E"/>
<stop offset="0.55" stop-color="#CCA246"/>
<stop offset="0.6" stop-color="#C3922E"/>
<stop offset="0.87" stop-color="#EED688"/>
<stop offset="1" stop-color="#FFFBCC"/>
</linearGradient>
</defs>
</svg>
