<svg width="147" height="136" viewBox="0 0 147 136" fill="none" xmlns="http://www.w3.org/2000/svg">
<g filter="url(#filter0_d_29_307)">
<path d="M111.704 47.2689C111.713 47.8999 111.671 48.5306 111.579 49.1546C110.587 55.9047 105.053 59.1788 98.9737 60.1536C89.0829 61.7341 79.1489 64.698 71.1833 71.2167C60.33 80.0789 57.6299 84.2688 54.7806 87.3312C54.4388 87.7005 54.0923 88.05 53.7361 88.3898C52.3492 89.5903 50.6558 90.3602 48.8553 90.6089C47.0549 90.8575 45.2224 90.5745 43.574 89.7932C41.9255 89.0119 40.5297 87.7649 39.5511 86.199C38.5725 84.6332 38.0519 82.8138 38.0505 80.9553C38.0505 80.8667 38.0505 80.783 38.0505 80.6993C38.1853 71.0345 46.3482 60.8823 45.1401 41.7694C43.9224 22.5088 37.8436 17.4081 38.0457 10.7318C38.0457 8.14768 39.0492 5.66937 40.8355 3.8421C42.6218 2.01483 45.0445 0.988281 47.5707 0.988281C50.0968 0.988281 52.5195 2.01483 54.3058 3.8421C56.0921 5.66937 57.0956 8.14768 57.0956 10.7318C57.0974 11.3113 57.0474 11.8898 56.9464 12.46C56.9464 12.46 54.7421 47.0621 57.0956 51.9167C57.0956 51.9167 58.1641 62.3643 68.7768 62.2904C76.9589 62.2904 80.8093 54.9446 84.0196 48.3176C86.4261 43.3941 89.2032 38.195 94.0548 35.8465C95.9383 34.9341 98.0168 34.5238 100.097 34.6536C102.177 34.7834 104.191 35.4492 105.952 36.589C107.714 37.7287 109.164 39.3056 110.17 41.1728C111.176 43.04 111.703 45.1371 111.704 47.2689Z" fill="url(#paint0_linear_29_307)"/>
</g>
<g filter="url(#filter1_d_29_307)">
<path d="M7.92458 122.082H16.4991V126.233H4V113.733H7.92458V122.082Z" fill="#F1CE8C"/>
<path d="M31.0298 126.233V113.733H34.9544V126.233H31.0298Z" fill="#F1CE8C"/>
<path d="M66.2839 123.973L64.3411 127.5C63.4139 126.933 62.5457 126.265 61.7506 125.507C60.2291 126.025 58.6333 126.257 57.0359 126.192C54.3245 126.192 52.3191 125.66 51.0195 124.596C49.7199 123.532 49.0723 121.902 49.0766 119.706C49.0706 119.003 49.1915 118.305 49.4328 117.651C49.6463 117.056 49.975 116.515 50.3978 116.062C50.8287 115.626 51.3095 115.248 51.829 114.938C52.3533 114.616 52.915 114.368 53.4999 114.199C54.0776 114.026 54.6663 113.898 55.2614 113.815C55.8285 113.739 56.3995 113.7 56.9711 113.699C57.4763 113.699 57.9749 113.699 58.4607 113.76C58.9875 113.807 59.511 113.89 60.0279 114.007C60.5553 114.125 61.0729 114.288 61.5757 114.493C62.0699 114.693 62.5395 114.955 62.9746 115.274C63.4132 115.589 63.806 115.969 64.1403 116.404C64.4708 116.878 64.7207 117.408 64.8786 117.973C65.0735 118.617 65.1697 119.29 65.1635 119.966C65.178 120.904 65.0128 121.836 64.6778 122.706C65.1747 123.18 65.7124 123.604 66.2839 123.973ZM57.1071 123.007C58.0792 123.078 59.0492 122.839 59.8919 122.322C60.225 122.047 60.4869 121.687 60.6533 121.277C60.8198 120.866 60.8853 120.417 60.8439 119.973C60.852 119.527 60.7657 119.084 60.5913 118.678C60.4415 118.336 60.22 118.033 59.9437 117.795C59.6731 117.571 59.3717 117.394 59.05 117.267C58.7276 117.137 58.3934 117.043 58.0527 116.986C57.7283 116.942 57.4017 116.92 57.0747 116.918C56.6651 116.917 56.2567 116.965 55.8572 117.062C55.4568 117.161 55.0696 117.313 54.7045 117.514C54.3272 117.724 54.0131 118.042 53.7978 118.432C53.5596 118.863 53.4407 119.357 53.4545 119.856C53.4312 120.472 53.5678 121.083 53.8496 121.623C54.1305 122.102 54.5543 122.469 55.0542 122.664C55.7118 122.915 56.4085 123.031 57.1071 123.007Z" fill="#F1CE8C"/>
<path d="M87.6198 126.233C86.1327 126.268 84.6484 126.083 83.2095 125.685C82.7 125.562 82.2202 125.328 81.8 124.999C81.3799 124.67 81.0285 124.253 80.7679 123.774C80.4169 122.98 80.1978 122.127 80.1203 121.254C79.9882 119.746 79.932 118.233 79.9519 116.719V113.733H84.0967V119.322C84.0923 119.64 84.1096 119.959 84.1485 120.274C84.1898 120.592 84.2772 120.902 84.4076 121.192C84.5351 121.514 84.7352 121.799 84.9904 122.021C85.3003 122.276 85.6546 122.464 86.0331 122.576C86.5511 122.731 87.0879 122.805 87.6262 122.795C88.1603 122.805 88.6928 122.731 89.2064 122.576C89.5754 122.469 89.9194 122.282 90.2167 122.028C90.4577 121.802 90.6461 121.521 90.7672 121.206C90.8859 120.913 90.9665 120.604 91.0068 120.288C91.0404 119.967 91.0555 119.645 91.0521 119.322V113.733H95.1969V116.719C95.223 118.233 95.1711 119.746 95.0415 121.254C94.9669 122.127 94.7477 122.981 94.3939 123.774C94.1544 124.254 93.8103 124.668 93.3901 124.98C92.9159 125.326 92.3875 125.581 91.8293 125.733C91.1931 125.919 90.5431 126.047 89.8864 126.117C89.1335 126.2 88.3768 126.239 87.6198 126.233Z" fill="#F1CE8C"/>
<path d="M109.737 126.233V113.733H113.662V126.233H109.737Z" fill="#F1CE8C"/>
<path d="M136.328 126.233H128.194V113.767H136.282C136.962 113.761 137.642 113.804 138.316 113.897C138.937 113.994 139.544 114.173 140.123 114.431C140.691 114.675 141.207 115.039 141.638 115.5C142.084 116.022 142.419 116.638 142.623 117.308C142.89 118.177 143.017 119.087 142.998 120C143.005 120.843 142.867 121.681 142.59 122.472C142.362 123.142 142 123.752 141.528 124.26C141.076 124.73 140.553 125.117 139.98 125.404C139.411 125.696 138.808 125.908 138.186 126.034C137.574 126.163 136.952 126.229 136.328 126.233ZM136.062 122.808C136.611 122.826 137.154 122.696 137.642 122.431C138.05 122.205 138.384 121.854 138.601 121.424C138.811 120.983 138.916 120.494 138.905 120C138.938 119.248 138.694 118.512 138.225 117.945C137.935 117.665 137.593 117.451 137.22 117.318C136.848 117.185 136.454 117.135 136.062 117.171H132.118V122.815L136.062 122.808Z" fill="#F1CE8C"/>
</g>
<defs>
<filter id="filter0_d_29_307" x="34.0408" y="0.988281" width="81.6646" height="97.7083" filterUnits="userSpaceOnUse" color-interpolation-filters="sRGB">
<feFlood flood-opacity="0" result="BackgroundImageFix"/>
<feColorMatrix in="SourceAlpha" type="matrix" values="0 0 0 0 0 0 0 0 0 0 0 0 0 0 0 0 0 0 127 0" result="hardAlpha"/>
<feOffset dy="4"/>
<feGaussianBlur stdDeviation="2"/>
<feComposite in2="hardAlpha" operator="out"/>
<feColorMatrix type="matrix" values="0 0 0 0 0 0 0 0 0 0 0 0 0 0 0 0 0 0 0.25 0"/>
<feBlend mode="normal" in2="BackgroundImageFix" result="effect1_dropShadow_29_307"/>
<feBlend mode="normal" in="SourceGraphic" in2="effect1_dropShadow_29_307" result="shape"/>
</filter>
<filter id="filter1_d_29_307" x="0" y="113.699" width="147" height="21.8013" filterUnits="userSpaceOnUse" color-interpolation-filters="sRGB">
<feFlood flood-opacity="0" result="BackgroundImageFix"/>
<feColorMatrix in="SourceAlpha" type="matrix" values="0 0 0 0 0 0 0 0 0 0 0 0 0 0 0 0 0 0 127 0" result="hardAlpha"/>
<feOffset dy="4"/>
<feGaussianBlur stdDeviation="2"/>
<feComposite in2="hardAlpha" operator="out"/>
<feColorMatrix type="matrix" values="0 0 0 0 0 0 0 0 0 0 0 0 0 0 0 0 0 0 0.25 0"/>
<feBlend mode="normal" in2="BackgroundImageFix" result="effect1_dropShadow_29_307"/>
<feBlend mode="normal" in="SourceGraphic" in2="effect1_dropShadow_29_307" result="shape"/>
</filter>
<linearGradient id="paint0_linear_29_307" x1="29.2234" y1="-6.33785" x2="122.491" y2="130.422" gradientUnits="userSpaceOnUse">
<stop offset="0.01" stop-color="#FBC926"/>
<stop offset="0.25" stop-color="#FFFBCC"/>
<stop offset="0.3" stop-color="#F8F0BB"/>
<stop offset="0.41" stop-color="#E7D28E"/>
<stop offset="0.55" stop-color="#CCA246"/>
<stop offset="0.6" stop-color="#C3922E"/>
<stop offset="0.87" stop-color="#EED688"/>
<stop offset="1" stop-color="#FFFBCC"/>
</linearGradient>
</defs>
</svg>
