<svg width="252" height="80" viewBox="0 0 252 80" fill="none" xmlns="http://www.w3.org/2000/svg">
<g filter="url(#filter0_d_169_143)">
<path d="M63.9625 37.1449C63.9697 37.6514 63.9356 38.1576 63.8607 38.6584C63.0536 44.076 58.5481 46.7038 53.5999 47.4862C45.5487 48.7547 37.4623 51.1335 30.9783 56.3654C22.1436 63.4783 19.9457 66.8411 17.6263 69.299C17.3481 69.5954 17.0661 69.8759 16.7761 70.1486C15.6472 71.1121 14.2687 71.7301 12.8031 71.9296C11.3375 72.1292 9.84592 71.9021 8.50407 71.275C7.16221 70.6479 6.02604 69.647 5.22945 68.3903C4.43285 67.1335 4.00903 65.6733 4.00793 64.1817C4.00793 64.1105 4.00793 64.0434 4.00793 63.9762C4.11763 56.2192 10.7623 48.0711 9.7789 32.731C8.78768 17.2724 3.83946 13.1785 4.00401 7.82019C4.00401 5.74615 4.82088 3.75705 6.27493 2.29048C7.72897 0.823911 9.70108 0 11.7574 0C13.8137 0 15.7858 0.823911 17.2399 2.29048C18.6939 3.75705 19.5108 5.74615 19.5108 7.82019C19.5122 8.28529 19.4716 8.74955 19.3893 9.2072C19.3893 9.2072 17.595 36.979 19.5108 40.8752C19.5108 40.8752 20.3806 49.2605 29.0194 49.2012C35.6797 49.2012 38.814 43.3054 41.4272 37.9866C43.3861 34.035 45.6467 29.8621 49.5958 27.9772C51.129 27.245 52.8209 26.9157 54.5142 27.0198C56.2074 27.124 57.8471 27.6584 59.2807 28.5732C60.7142 29.488 61.8952 30.7535 62.7138 32.2522C63.5323 33.7508 63.9619 35.4339 63.9625 37.1449Z" fill="url(#paint0_linear_169_143)"/>
</g>
<path d="M105.294 37.5239H114.607V41.789H101.032V28.9444H105.294V37.5239Z" fill="#F1CE8C"/>
<path d="M105.294 37.5239H114.607V41.789H101.032V28.9444H105.294V37.5239Z" fill="url(#paint1_linear_169_143)"/>
<path d="M130.39 41.789V28.9444H134.652V41.789H130.39Z" fill="#F1CE8C"/>
<path d="M130.39 41.789V28.9444H134.652V41.789H130.39Z" fill="url(#paint2_linear_169_143)"/>
<path d="M168.678 39.4664L166.568 43.091C165.561 42.5088 164.618 41.8223 163.754 41.0429C162.102 41.5757 160.369 41.8139 158.634 41.7467C155.689 41.7467 153.511 41.2001 152.099 40.1068C150.688 39.0136 149.985 37.3385 149.989 35.0816C149.983 34.3596 150.114 33.6429 150.376 32.9702C150.608 32.3588 150.965 31.8026 151.424 31.3373C151.892 30.8893 152.414 30.5015 152.979 30.1831C153.548 29.8521 154.158 29.5966 154.793 29.423C155.421 29.2459 156.06 29.1142 156.707 29.0288C157.322 28.9504 157.943 28.9105 158.564 28.9092C159.112 28.9092 159.654 28.9092 160.181 28.9725C160.754 29.0206 161.322 29.1053 161.883 29.2259C162.456 29.3473 163.018 29.5145 163.565 29.7256C164.101 29.9312 164.611 30.2006 165.084 30.528C165.56 30.8511 165.987 31.2424 166.35 31.6892C166.709 32.1757 166.98 32.7211 167.152 33.301C167.364 33.9628 167.468 34.6542 167.461 35.3491C167.477 36.3135 167.298 37.2711 166.934 38.1643C167.473 38.6518 168.057 39.0877 168.678 39.4664ZM158.711 38.474C159.767 38.547 160.821 38.3019 161.736 37.7702C162.098 37.4876 162.382 37.1181 162.563 36.6961C162.744 36.274 162.815 35.8131 162.77 35.3561C162.779 34.8978 162.685 34.4433 162.495 34.0259C162.333 33.6739 162.092 33.3634 161.792 33.118C161.498 32.8887 161.171 32.7059 160.821 32.576C160.471 32.4426 160.108 32.3459 159.738 32.2875C159.386 32.2423 159.031 32.2188 158.676 32.2171C158.231 32.2164 157.788 32.266 157.354 32.3649C156.919 32.4673 156.498 32.6234 156.102 32.8294C155.692 33.0457 155.351 33.3724 155.117 33.7725C154.858 34.216 154.729 34.7232 154.744 35.2364C154.719 35.8696 154.867 36.4976 155.173 37.0523C155.478 37.5445 155.939 37.921 156.482 38.1221C157.196 38.3797 157.952 38.4991 158.711 38.474Z" fill="#F1CE8C"/>
<path d="M168.678 39.4664L166.568 43.091C165.561 42.5088 164.618 41.8223 163.754 41.0429C162.102 41.5757 160.369 41.8139 158.634 41.7467C155.689 41.7467 153.511 41.2001 152.099 40.1068C150.688 39.0136 149.985 37.3385 149.989 35.0816C149.983 34.3596 150.114 33.6429 150.376 32.9702C150.608 32.3588 150.965 31.8026 151.424 31.3373C151.892 30.8893 152.414 30.5015 152.979 30.1831C153.548 29.8521 154.158 29.5966 154.793 29.423C155.421 29.2459 156.06 29.1142 156.707 29.0288C157.322 28.9504 157.943 28.9105 158.564 28.9092C159.112 28.9092 159.654 28.9092 160.181 28.9725C160.754 29.0206 161.322 29.1053 161.883 29.2259C162.456 29.3473 163.018 29.5145 163.565 29.7256C164.101 29.9312 164.611 30.2006 165.084 30.528C165.56 30.8511 165.987 31.2424 166.35 31.6892C166.709 32.1757 166.98 32.7211 167.152 33.301C167.364 33.9628 167.468 34.6542 167.461 35.3491C167.477 36.3135 167.298 37.2711 166.934 38.1643C167.473 38.6518 168.057 39.0877 168.678 39.4664ZM158.711 38.474C159.767 38.547 160.821 38.3019 161.736 37.7702C162.098 37.4876 162.382 37.1181 162.563 36.6961C162.744 36.274 162.815 35.8131 162.77 35.3561C162.779 34.8978 162.685 34.4433 162.495 34.0259C162.333 33.6739 162.092 33.3634 161.792 33.118C161.498 32.8887 161.171 32.7059 160.821 32.576C160.471 32.4426 160.108 32.3459 159.738 32.2875C159.386 32.2423 159.031 32.2188 158.676 32.2171C158.231 32.2164 157.788 32.266 157.354 32.3649C156.919 32.4673 156.498 32.6234 156.102 32.8294C155.692 33.0457 155.351 33.3724 155.117 33.7725C154.858 34.216 154.729 34.7232 154.744 35.2364C154.719 35.8696 154.867 36.4976 155.173 37.0523C155.478 37.5445 155.939 37.921 156.482 38.1221C157.196 38.3797 157.952 38.4991 158.711 38.474Z" fill="url(#paint3_linear_169_143)"/>
<path d="M191.852 41.7889C190.237 41.8246 188.624 41.6351 187.062 41.2259C186.508 41.0989 185.987 40.859 185.531 40.5211C185.075 40.1832 184.693 39.7546 184.41 39.2622C184.029 38.4456 183.791 37.5695 183.706 36.6722C183.563 35.1235 183.502 33.5682 183.524 32.013V28.9443H188.025V34.6874C188.02 35.0145 188.039 35.3414 188.081 35.6657C188.126 35.9927 188.221 36.3108 188.363 36.6089C188.501 36.9401 188.719 37.2325 188.996 37.4605C189.333 37.7227 189.717 37.9164 190.128 38.0305C190.691 38.19 191.274 38.2659 191.859 38.2558C192.439 38.2659 193.017 38.19 193.575 38.0305C193.976 37.9208 194.349 37.7291 194.672 37.4675C194.934 37.2359 195.139 36.9468 195.27 36.6229C195.399 36.3218 195.487 36.0045 195.53 35.6798C195.567 35.3503 195.583 35.0189 195.58 34.6874V28.9443H200.081V32.013C200.11 33.568 200.053 35.1233 199.912 36.6722C199.831 37.5701 199.593 38.4468 199.209 39.2622C198.949 39.7558 198.575 40.1804 198.119 40.5009C197.604 40.8571 197.03 41.1192 196.424 41.2751C195.733 41.466 195.027 41.5979 194.313 41.6693C193.496 41.7551 192.674 41.795 191.852 41.7889Z" fill="#F1CE8C"/>
<path d="M191.852 41.7889C190.237 41.8246 188.624 41.6351 187.062 41.2259C186.508 41.0989 185.987 40.859 185.531 40.5211C185.075 40.1832 184.693 39.7546 184.41 39.2622C184.029 38.4456 183.791 37.5695 183.706 36.6722C183.563 35.1235 183.502 33.5682 183.524 32.013V28.9443H188.025V34.6874C188.02 35.0145 188.039 35.3414 188.081 35.6657C188.126 35.9927 188.221 36.3108 188.363 36.6089C188.501 36.9401 188.719 37.2325 188.996 37.4605C189.333 37.7227 189.717 37.9164 190.128 38.0305C190.691 38.19 191.274 38.2659 191.859 38.2558C192.439 38.2659 193.017 38.19 193.575 38.0305C193.976 37.9208 194.349 37.7291 194.672 37.4675C194.934 37.2359 195.139 36.9468 195.27 36.6229C195.399 36.3218 195.487 36.0045 195.53 35.6798C195.567 35.3503 195.583 35.0189 195.58 34.6874V28.9443H200.081V32.013C200.11 33.568 200.053 35.1233 199.912 36.6722C199.831 37.5701 199.593 38.4468 199.209 39.2622C198.949 39.7558 198.575 40.1804 198.119 40.5009C197.604 40.8571 197.03 41.1192 196.424 41.2751C195.733 41.466 195.027 41.5979 194.313 41.6693C193.496 41.7551 192.674 41.795 191.852 41.7889Z" fill="url(#paint4_linear_169_143)"/>
<path d="M215.874 41.7889V28.9443H220.136V41.7889H215.874Z" fill="#F1CE8C"/>
<path d="M215.874 41.7889V28.9443H220.136V41.7889H215.874Z" fill="url(#paint5_linear_169_143)"/>
<path d="M244.753 41.7885H235.919V28.9791H244.704C245.442 28.9725 246.18 29.0172 246.913 29.1128C247.587 29.212 248.247 29.3964 248.875 29.6618C249.492 29.9126 250.052 30.2861 250.521 30.7597C251.005 31.2964 251.369 31.9297 251.59 32.6178C251.88 33.5103 252.018 34.4454 251.998 35.3838C252.006 36.2506 251.856 37.1116 251.555 37.9245C251.307 38.613 250.914 39.2397 250.401 39.7615C249.911 40.2446 249.342 40.6419 248.72 40.9368C248.102 41.2373 247.447 41.455 246.772 41.5843C246.107 41.7165 245.431 41.7849 244.753 41.7885ZM244.465 38.2694C245.06 38.2879 245.651 38.1547 246.181 37.8823C246.624 37.6495 246.986 37.2891 247.222 36.8477C247.451 36.3942 247.564 35.8915 247.553 35.3838C247.588 34.611 247.323 33.8544 246.814 33.2723C246.499 32.9845 246.127 32.7652 245.723 32.6283C245.318 32.4914 244.89 32.4399 244.465 32.477H240.181V38.2764L244.465 38.2694Z" fill="#F1CE8C"/>
<path d="M244.753 41.7885H235.919V28.9791H244.704C245.442 28.9725 246.18 29.0172 246.913 29.1128C247.587 29.212 248.247 29.3964 248.875 29.6618C249.492 29.9126 250.052 30.2861 250.521 30.7597C251.005 31.2964 251.369 31.9297 251.59 32.6178C251.88 33.5103 252.018 34.4454 251.998 35.3838C252.006 36.2506 251.856 37.1116 251.555 37.9245C251.307 38.613 250.914 39.2397 250.401 39.7615C249.911 40.2446 249.342 40.6419 248.72 40.9368C248.102 41.2373 247.447 41.455 246.772 41.5843C246.107 41.7165 245.431 41.7849 244.753 41.7885ZM244.465 38.2694C245.06 38.2879 245.651 38.1547 246.181 37.8823C246.624 37.6495 246.986 37.2891 247.222 36.8477C247.451 36.3942 247.564 35.8915 247.553 35.3838C247.588 34.611 247.323 33.8544 246.814 33.2723C246.499 32.9845 246.127 32.7652 245.723 32.6283C245.318 32.4914 244.89 32.4399 244.465 32.477H240.181V38.2764L244.465 38.2694Z" fill="url(#paint6_linear_169_143)"/>
<defs>
<filter id="filter0_d_169_143" x="0" y="0" width="67.9634" height="80" filterUnits="userSpaceOnUse" color-interpolation-filters="sRGB">
<feFlood flood-opacity="0" result="BackgroundImageFix"/>
<feColorMatrix in="SourceAlpha" type="matrix" values="0 0 0 0 0 0 0 0 0 0 0 0 0 0 0 0 0 0 127 0" result="hardAlpha"/>
<feOffset dy="4"/>
<feGaussianBlur stdDeviation="2"/>
<feComposite in2="hardAlpha" operator="out"/>
<feColorMatrix type="matrix" values="0 0 0 0 0 0 0 0 0 0 0 0 0 0 0 0 0 0 0.25 0"/>
<feBlend mode="normal" in2="BackgroundImageFix" result="effect1_dropShadow_169_143"/>
<feBlend mode="normal" in="SourceGraphic" in2="effect1_dropShadow_169_143" result="shape"/>
</filter>
<linearGradient id="paint0_linear_169_143" x1="-3.17738" y1="-5.87996" x2="71.2882" y2="104.862" gradientUnits="userSpaceOnUse">
<stop offset="0.01" stop-color="#FBC926"/>
<stop offset="0.25" stop-color="#FFFBCC"/>
<stop offset="0.3" stop-color="#F8F0BB"/>
<stop offset="0.41" stop-color="#E7D28E"/>
<stop offset="0.55" stop-color="#CCA246"/>
<stop offset="0.6" stop-color="#C3922E"/>
<stop offset="0.87" stop-color="#EED688"/>
<stop offset="1" stop-color="#FFFBCC"/>
</linearGradient>
<linearGradient id="paint1_linear_169_143" x1="252" y1="37.8926" x2="236.375" y2="-5.42504" gradientUnits="userSpaceOnUse">
<stop stop-color="#EDD781"/>
<stop offset="0.652698" stop-color="#CCA247"/>
</linearGradient>
<linearGradient id="paint2_linear_169_143" x1="252" y1="37.8926" x2="236.375" y2="-5.42504" gradientUnits="userSpaceOnUse">
<stop stop-color="#EDD781"/>
<stop offset="0.652698" stop-color="#CCA247"/>
</linearGradient>
<linearGradient id="paint3_linear_169_143" x1="252" y1="37.8926" x2="236.375" y2="-5.42504" gradientUnits="userSpaceOnUse">
<stop stop-color="#EDD781"/>
<stop offset="0.652698" stop-color="#CCA247"/>
</linearGradient>
<linearGradient id="paint4_linear_169_143" x1="252" y1="37.8926" x2="236.375" y2="-5.42504" gradientUnits="userSpaceOnUse">
<stop stop-color="#EDD781"/>
<stop offset="0.652698" stop-color="#CCA247"/>
</linearGradient>
<linearGradient id="paint5_linear_169_143" x1="252" y1="37.8926" x2="236.375" y2="-5.42504" gradientUnits="userSpaceOnUse">
<stop stop-color="#EDD781"/>
<stop offset="0.652698" stop-color="#CCA247"/>
</linearGradient>
<linearGradient id="paint6_linear_169_143" x1="252" y1="37.8926" x2="236.375" y2="-5.42504" gradientUnits="userSpaceOnUse">
<stop stop-color="#EDD781"/>
<stop offset="0.652698" stop-color="#CCA247"/>
</linearGradient>
</defs>
</svg>
